<?xml version="1.0" encoding="UTF-8"?>
<!-- Generator: visioncortex VTracer 0.6.12 -->
<svg version="1.1" xmlns="http://www.w3.org/2000/svg" width="1254" height="1254">
<path d="M0 0 C18.73 8.872 33.327 24.242 40.449 43.66 C42.347 49.269 43.634 54.366 43.646 60.299 C43.65 61.318 43.655 62.338 43.659 63.388 C43.659 63.944 43.659 63.944 43.659 66.759 C43.663 67.947 43.666 69.134 43.67 70.358 C43.679 73.651 43.684 76.944 43.686 80.236 C43.69 83.79 43.7 87.343 43.709 90.896 C43.728 99.475 43.738 108.054 43.747 116.634 C43.752 120.678 43.757 124.722 43.762 128.765 C43.779 142.215 43.794 155.664 43.801 169.113 C43.803 172.602 43.805 176.091 43.807 179.579 C43.807 180.446 43.808 181.313 43.808 182.206 C43.817 196.243 43.842 210.279 43.874 224.315 C43.908 238.738 43.926 253.16 43.929 267.583 C43.931 275.676 43.94 283.768 43.965 291.861 C43.987 298.755 43.995 305.65 43.985 312.544 C43.981 316.057 43.982 319.571 44.002 323.084 C44.02 326.905 44.013 330.724 43.999 334.545 C44.01 335.64 44.021 336.735 44.033 337.863 C43.918 351.823 39.025 365.456 29.574 375.848 C25.731 379.463 21.618 382.088 17.012 384.598 C16.407 384.928 15.803 385.258 15.18 385.598 C7.425 389.564 -0.438 390.459 -9.049 390.434 C-9.969 390.44 -10.889 390.445 -11.837 390.45 C-14.898 390.465 -17.958 390.466 -21.018 390.467 C-23.222 390.474 -25.425 390.483 -27.629 390.492 C-33.6 390.514 -39.571 390.523 -45.543 390.528 C-49.279 390.531 -53.015 390.537 -56.751 390.545 C-69.128 390.568 -81.505 390.582 -93.883 390.585 C-94.549 390.585 -95.215 390.586 -95.901 390.586 C-96.568 390.586 -97.235 390.586 -97.922 390.586 C-108.717 390.59 -119.511 390.617 -130.306 390.654 C-141.418 390.692 -152.53 390.711 -163.642 390.712 C-169.869 390.713 -176.096 390.721 -182.323 390.75 C-188.185 390.776 -194.047 390.778 -199.91 390.762 C-202.051 390.76 -204.193 390.767 -206.334 390.783 C-222.597 390.897 -237.052 389.916 -249.488 378.16 C-250.375 377.335 -251.262 376.51 -252.176 375.66 C-252.939 374.835 -253.702 374.01 -254.488 373.16 C-254.981 372.638 -255.473 372.116 -255.98 371.578 C-265.813 360.743 -267.945 347.634 -267.908 333.358 C-267.917 332.141 -267.925 330.923 -267.934 329.668 C-267.953 326.366 -267.959 323.065 -267.957 319.764 C-267.957 316.995 -267.966 314.227 -267.974 311.458 C-267.993 304.926 -267.996 298.394 -267.989 291.861 C-267.983 285.142 -268.006 278.424 -268.043 271.705 C-268.073 265.911 -268.085 260.117 -268.081 254.323 C-268.079 250.873 -268.084 247.424 -268.109 243.974 C-268.135 240.13 -268.121 236.288 -268.104 232.444 C-268.117 231.314 -268.13 230.183 -268.144 229.018 C-268.061 221.264 -266.506 216.099 -260.904 210.607 C-255.587 206.016 -251.807 205.641 -244.898 205.68 C-239.48 206.443 -236.076 209.145 -232.488 213.16 C-230.009 216.739 -229.114 219.114 -229.123 223.46 C-229.121 223.984 -229.121 223.984 -229.107 226.637 C-229.112 227.207 -229.112 227.207 -229.135 230.091 C-229.133 231.3 -229.131 232.509 -229.129 233.754 C-229.126 236.378 -229.128 239.001 -229.139 241.624 C-229.155 245.777 -229.147 249.929 -229.134 254.082 C-229.104 265.143 -229.105 276.205 -229.124 287.266 C-229.136 294.536 -229.135 301.806 -229.106 309.076 C-229.091 313.2 -229.098 317.322 -229.122 321.446 C-229.135 324.621 -229.115 327.795 -229.1 330.97 C-229.113 332.106 -229.127 333.242 -229.141 334.412 C-229.081 340.136 -228.692 344.162 -225.146 348.764 C-219.981 353.112 -215.245 353.596 -208.803 353.548 C-208.373 353.551 -208.373 353.551 -206.192 353.564 C-203.311 353.578 -200.43 353.571 -197.549 353.564 C-195.481 353.57 -193.412 353.577 -191.344 353.585 C-185.73 353.603 -180.117 353.602 -174.503 353.596 C-169.816 353.593 -165.129 353.599 -160.442 353.605 C-149.385 353.619 -138.328 353.618 -127.271 353.606 C-115.865 353.595 -104.459 353.609 -93.053 353.636 C-83.258 353.658 -73.464 353.664 -63.669 353.659 C-57.82 353.655 -51.971 353.658 -46.121 353.675 C-40.621 353.69 -35.121 353.686 -29.621 353.667 C-27.603 353.664 -25.586 353.667 -23.568 353.677 C-20.812 353.691 -18.056 353.679 -15.3 353.661 C-14.504 353.671 -13.707 353.681 -12.886 353.69 C-7.298 353.617 -4.184 352.167 0.512 349.16 C1.172 349.16 1.832 349.16 2.512 349.16 C4.292 344.769 5.636 341.181 5.646 336.418 C5.648 335.927 5.648 335.927 5.659 333.443 C5.659 332.362 5.659 331.281 5.659 330.168 C5.661 329.594 5.661 329.594 5.67 326.694 C5.679 323.507 5.684 320.319 5.686 317.132 C5.69 313.696 5.7 310.261 5.709 306.825 C5.728 298.523 5.738 290.222 5.747 281.92 C5.752 278.01 5.757 274.099 5.762 270.189 C5.779 257.185 5.794 244.182 5.801 231.179 C5.803 227.804 5.805 224.429 5.807 221.055 C5.807 220.216 5.808 219.377 5.808 218.513 C5.817 204.934 5.842 191.356 5.874 177.777 C5.908 163.832 5.926 149.886 5.929 135.94 C5.931 128.112 5.94 120.285 5.965 112.457 C5.987 105.788 5.995 99.119 5.985 92.45 C5.981 89.05 5.985 85.651 6.002 82.251 C6.02 78.557 6.013 74.863 5.999 71.169 C6.01 70.105 6.021 69.042 6.033 67.947 C5.937 56.824 2.701 48.398 -4.988 40.367 C-8.129 37.595 -11.457 35.669 -15.117 33.664 C-19.822 30.68 -23.72 26.464 -25.488 21.16 C-26.027 14.806 -25.128 10.461 -21.488 5.16 C-15.204 -0.81 -8.387 -2.831 0 0 Z " fill="#2199D1" transform="translate(769.48828125,300.83984375)"/>
<path d="M0 0 C1.035 -0.007 2.07 -0.014 3.137 -0.021 C6.587 -0.039 10.036 -0.029 13.486 -0.019 C15.967 -0.026 18.448 -0.035 20.929 -0.045 C26.956 -0.065 32.983 -0.066 39.011 -0.058 C43.911 -0.052 48.811 -0.053 53.711 -0.06 C54.41 -0.06 55.108 -0.061 55.828 -0.062 C57.248 -0.064 58.667 -0.066 60.087 -0.068 C73.381 -0.084 86.676 -0.076 99.97 -0.059 C112.125 -0.044 124.279 -0.059 136.433 -0.088 C148.927 -0.117 161.421 -0.128 173.915 -0.118 C175.328 -0.117 176.742 -0.116 178.156 -0.115 C178.504 -0.115 178.504 -0.115 180.264 -0.114 C185.156 -0.112 190.049 -0.122 194.941 -0.136 C201.53 -0.156 208.118 -0.149 214.707 -0.124 C217.124 -0.119 219.541 -0.123 221.958 -0.135 C225.259 -0.151 228.559 -0.136 231.86 -0.114 C232.338 -0.119 232.338 -0.119 234.754 -0.149 C241.908 -0.05 246.871 1.965 251.927 7.099 C256.781 12.749 256.711 16.786 256.644 24.089 C256.176 29.872 253.5 32.603 249.367 36.265 C244.499 39.915 241.738 40.765 235.586 40.766 C234.905 40.769 234.224 40.772 233.522 40.775 C231.241 40.783 228.959 40.776 226.678 40.77 C225.042 40.773 223.405 40.776 221.769 40.781 C218.246 40.789 214.723 40.791 211.199 40.789 C205.627 40.786 200.055 40.801 194.483 40.818 C178.639 40.865 162.794 40.889 146.95 40.896 C138.199 40.899 129.448 40.917 120.697 40.951 C115.159 40.971 109.621 40.973 104.083 40.962 C100.636 40.96 97.189 40.974 93.741 40.992 C92.144 40.998 90.547 40.996 88.95 40.987 C86.766 40.976 84.585 40.99 82.401 41.009 C81.791 41.01 81.791 41.01 78.702 41.012 C73.527 41.792 70.455 44.279 67.054 48.14 C64.415 51.855 64.241 53.829 64.235 58.371 C64.231 59.619 64.227 60.867 64.223 62.153 C64.224 63.543 64.224 64.934 64.225 66.324 C64.222 67.783 64.218 69.241 64.214 70.7 C64.206 73.846 64.201 76.991 64.198 80.137 C64.192 85.112 64.176 90.088 64.157 95.063 C64.15 96.766 64.144 98.468 64.138 100.171 C64.135 101.024 64.131 101.877 64.128 102.756 C64.086 114.341 64.053 125.927 64.041 137.512 C64.032 145.323 64.01 153.134 63.971 160.946 C63.952 165.08 63.939 169.213 63.944 173.347 C63.949 177.238 63.935 181.128 63.907 185.019 C63.9 186.445 63.9 187.871 63.907 189.297 C63.947 197.946 63.844 202.797 57.839 209.124 C52.857 213.154 49.008 215.041 42.48 214.819 C37.064 214.038 32.775 211.419 29.167 207.345 C24.76 201.199 25.578 193.958 25.686 186.735 C25.687 185.138 25.686 183.541 25.683 181.944 C25.681 177.626 25.716 173.309 25.758 168.991 C25.796 164.472 25.799 159.953 25.806 155.434 C25.825 146.885 25.874 138.336 25.935 129.787 C26.002 120.05 26.035 110.314 26.065 100.577 C26.127 80.556 26.233 60.535 26.367 40.515 C25.639 40.526 24.911 40.537 24.16 40.548 C17.29 40.649 10.419 40.725 3.548 40.774 C0.015 40.8 -3.516 40.835 -7.049 40.892 C-11.112 40.957 -15.175 40.981 -19.239 41.003 C-20.504 41.029 -21.768 41.055 -23.071 41.081 C-32.842 41.084 -32.842 41.084 -35.939 38.187 C-38.55 34.068 -38.158 31.051 -37.192 26.382 C-34.521 16.74 -27.957 9.746 -19.633 4.515 C-13.056 0.83 -7.47 -0.065 0 0 Z " fill="#32CB65" transform="translate(476.63331604003906,279.48533630371094)"/>
<path d="M0 0 C0.33 0.33 0.33 0.33 2 2 C2.482 1.434 2.964 0.868 3.461 0.285 C3.777 -0.082 3.777 -0.082 5.375 -1.938 C6.001 -2.668 6.628 -3.399 7.273 -4.152 C9.49 -6.525 10.511 -6.944 13.75 -7.312 C18.495 -6.856 21.308 -4.666 24.652 -1.374 C26.606 2.066 26.418 5.383 26.388 9.234 C26.393 10.062 26.399 10.891 26.404 11.744 C26.417 14.484 26.409 17.224 26.398 19.965 C26.4 21.879 26.403 23.792 26.407 25.706 C26.412 29.723 26.405 33.741 26.391 37.758 C26.374 42.875 26.384 47.992 26.402 53.109 C26.413 57.067 26.409 61.025 26.401 64.983 C26.399 66.867 26.402 68.751 26.409 70.636 C26.466 90.391 23.769 105.743 9.637 120.551 C-0.292 129.773 -12.095 132.589 -25.375 132.5 C-25.877 132.497 -25.877 132.497 -28.417 132.483 C-40.649 132.189 -49.978 128.427 -59 120 C-59.695 119.37 -60.39 118.739 -61.105 118.09 C-64.407 114.775 -66.468 112.129 -66.875 107.375 C-66.566 103.805 -65.553 101.937 -63 99.438 C-59.918 97.251 -57.065 95.928 -53.168 96.207 C-49.166 97.671 -46.445 100.823 -43.418 103.73 C-36.732 110.006 -30.813 110.629 -21.711 110.402 C-16.613 109.85 -12.549 108.265 -8 106 C-7.01 105.67 -6.02 105.34 -5 105 C-3.941 103.191 -3.941 103.191 -3 101 C-2.829 100.664 -2.829 100.664 -1.965 98.965 C-1.795 98.63 -1.795 98.63 -0.938 96.938 C-0.767 96.602 -0.767 96.602 0.098 94.902 C1.766 91.385 2.112 88.655 2.062 84.812 C2.053 83.911 2.044 83.01 2.035 82.082 C2.024 81.395 2.012 80.708 2 80 C1.539 80.326 1.077 80.652 0.602 80.988 C-11.342 88.99 -25.378 89.968 -39.352 87.379 C-50.039 83.914 -59.105 76.468 -65 67 C-65.654 65.978 -66.307 64.956 -66.98 63.902 C-73.508 52.645 -74.205 39.389 -71.525 26.764 C-68.986 17.898 -63.562 11.261 -57 5 C-56.424 4.416 -55.848 3.832 -55.254 3.23 C-39.978 -11.24 -16.683 -11.605 0 0 Z " fill="#1975F7" transform="translate(1013,824)"/>
<path d="M0 0 C0.763 0.351 1.526 0.701 2.312 1.062 C13.904 6.858 22.543 16.366 27.375 28.312 C31.74 42.832 29.878 57.683 23 71 C20.943 74.339 18.731 77.191 16 80 C15.479 80.548 14.958 81.096 14.422 81.66 C3.153 92.355 -11.249 94.729 -26.129 94.371 C-37.865 93.723 -47.574 89.227 -56 81 C-56.656 80.371 -57.312 79.742 -57.988 79.094 C-62.792 74.074 -65.521 68.444 -68 62 C-68.369 61.1 -68.737 60.2 -69.117 59.273 C-70.299 54.89 -70.342 50.771 -70.312 46.25 C-70.308 45.357 -70.303 44.464 -70.298 43.544 C-70.186 37.276 -69.67 31.749 -67 26 C-66.66 25.25 -66.319 24.5 -65.969 23.727 C-59.677 11.27 -49.259 2.644 -36.324 -2.273 C-24.682 -5.913 -10.904 -5.452 0 0 Z " fill="#1975F7" transform="translate(888,820)"/>
<path d="M0 0 C0.527 -0.004 0.527 -0.004 3.195 -0.022 C6.673 -0.038 10.149 -0.011 13.627 0.018 C16.048 0.019 18.469 0.018 20.89 0.015 C25.96 0.015 31.03 0.036 36.101 0.072 C42.598 0.118 49.094 0.119 55.591 0.105 C60.589 0.099 65.587 0.112 70.585 0.131 C72.98 0.139 75.375 0.141 77.771 0.138 C81.12 0.138 84.468 0.163 87.816 0.195 C88.805 0.19 89.793 0.185 90.811 0.18 C97.138 0.278 100.828 1.165 105.408 5.745 C106.046 11.175 106.421 15.377 103.096 19.87 C99.728 22.219 97.313 22.87 93.304 22.858 C92.894 22.858 92.894 22.858 90.817 22.858 C89.936 22.853 89.055 22.848 88.146 22.842 C87.241 22.841 86.335 22.839 85.402 22.838 C82.508 22.832 79.614 22.82 76.721 22.807 C74.759 22.802 72.798 22.798 70.836 22.793 C66.027 22.782 61.217 22.765 56.408 22.745 C56.412 23.301 56.416 23.857 56.419 24.43 C56.508 37.976 56.574 51.523 56.615 65.069 C56.636 71.62 56.665 78.171 56.71 84.722 C56.753 91.044 56.777 97.366 56.788 103.688 C56.795 106.1 56.81 108.512 56.831 110.924 C56.86 114.302 56.864 117.679 56.862 121.058 C56.877 122.055 56.891 123.053 56.906 124.081 C56.871 129.97 56.284 133.235 52.408 137.745 C48.667 141.058 45.538 141.007 40.787 140.752 C36.886 139.1 34.551 136.365 32.408 132.745 C31.582 129.1 31.647 125.576 31.727 121.852 C31.727 121.315 31.727 121.315 31.724 118.598 C31.729 115.064 31.775 111.532 31.822 107.999 C31.833 105.542 31.842 103.086 31.848 100.63 C31.871 94.177 31.93 87.725 31.996 81.272 C32.058 74.683 32.085 68.094 32.115 61.504 C32.18 48.584 32.281 35.664 32.408 22.745 C31.167 22.771 29.926 22.797 28.648 22.824 C24.03 22.915 19.412 22.972 14.793 23.019 C12.797 23.044 10.801 23.078 8.805 23.122 C5.93 23.183 3.057 23.211 0.182 23.233 C-0.706 23.259 -1.594 23.285 -2.508 23.311 C-6.844 23.313 -9.697 23.124 -13.14 20.339 C-16.08 17.228 -16.795 15.661 -17.029 11.495 C-17.09 10.747 -17.15 9.999 -17.213 9.229 C-14.986 0.32 -7.718 -0.119 0 0 Z " fill="#22C77F" transform="translate(248.591796875,772.25537109375)"/>
<path d="M0 0 C0.849 -0.049 1.699 -0.098 2.574 -0.148 C6.583 0.618 8.816 2.262 11.312 5.375 C13.828 9.802 15.879 14.413 17.938 19.062 C18.542 20.397 19.147 21.732 19.754 23.065 C20.999 25.803 22.235 28.545 23.467 31.289 C25.241 35.231 27.058 39.151 28.891 43.066 C29.169 43.662 29.169 43.662 30.576 46.675 C31.635 48.942 32.695 51.209 33.756 53.475 C34.226 54.489 34.696 55.503 35.18 56.547 C35.387 56.991 35.387 56.991 36.433 59.237 C37.312 61.375 37.312 61.375 37.312 63.375 C37.972 63.375 38.633 63.375 39.312 63.375 C39.436 62.85 39.56 62.326 39.688 61.785 C41.58 54.678 44.605 48.237 47.789 41.645 C49.771 37.539 51.688 33.406 53.586 29.262 C54.165 28.001 54.744 26.741 55.323 25.48 C56.188 23.596 57.052 21.711 57.911 19.824 C58.722 18.043 59.541 16.266 60.359 14.488 C60.832 13.455 61.305 12.421 61.792 11.357 C64.086 6.858 66.068 3.204 70.312 0.375 C75.128 -0.099 77.364 -0.117 81.688 2.125 C85.099 5.049 86.141 6.604 86.571 11.048 C86.251 15.168 84.727 18.161 82.797 21.727 C82.055 23.152 81.315 24.578 80.576 26.005 C80.197 26.73 79.819 27.456 79.428 28.203 C77.691 31.585 76.068 35.019 74.453 38.461 C74.137 39.132 73.821 39.803 73.496 40.494 C72.516 42.579 71.539 44.664 70.562 46.75 C69.865 48.237 69.167 49.724 68.469 51.211 C61.087 66.949 53.725 82.699 46.641 98.573 C45.202 101.793 43.749 105.006 42.29 108.216 C41.659 109.61 41.033 111.006 40.413 112.405 C35.838 122.677 29.793 133.184 19.312 138.375 C14.811 139.231 11.324 138.978 7.375 136.625 C4.564 133.558 3.54 131.654 2.812 127.562 C3.533 122.967 6.006 120.517 9.312 117.375 C10.098 116.861 10.883 116.346 11.691 115.816 C15.604 112.172 17.368 107.756 19.562 102.938 C20.009 101.996 20.455 101.054 20.914 100.084 C25.927 89.321 25.927 89.321 24.596 85.106 C24.398 84.72 24.398 84.72 23.397 82.766 C22.952 81.88 22.507 80.993 22.049 80.08 C21.553 79.128 21.058 78.176 20.547 77.195 C20.039 76.192 19.531 75.188 19.007 74.154 C17.372 70.929 15.718 67.714 14.062 64.5 C11.928 60.317 9.8 56.131 7.672 51.945 C7.145 50.913 6.619 49.881 6.076 48.817 C0.948 38.736 -3.938 28.543 -8.767 18.315 C-9.393 16.995 -10.034 15.682 -10.688 14.375 C-11.194 9.221 -11.194 9.221 -10.688 6.375 C-8.25 3.438 -8.25 3.438 -5.688 1.375 C-4.055 -0.257 -2.248 0.087 0 0 Z " fill="#23C882" transform="translate(578.6875,817.625)"/>
<path d="M0 0 C8.481 7.089 14.232 15.742 16.094 26.75 C16.191 28.563 16.242 30.379 16.255 32.195 C16.264 33.26 16.274 34.325 16.284 35.421 C16.288 36.561 16.292 37.701 16.297 38.875 C16.303 40.055 16.308 41.234 16.314 42.45 C16.324 44.941 16.33 47.432 16.334 49.924 C16.344 53.736 16.375 57.547 16.406 61.359 C16.413 63.781 16.418 66.203 16.422 68.625 C16.434 69.765 16.447 70.904 16.459 72.079 C16.456 73.143 16.453 74.208 16.45 75.305 C16.452 75.771 16.452 75.771 16.461 78.132 C15.912 82.043 14.068 84.663 11.469 87.562 C7.739 89.427 4.168 89.55 0.094 88.75 C-2.844 86.375 -2.844 86.375 -4.906 83.75 C-5.566 83.09 -6.226 82.43 -6.906 81.75 C-7.158 79.589 -7.158 79.589 -7.162 76.876 C-7.169 75.861 -7.176 74.846 -7.183 73.8 C-7.182 72.698 -7.181 71.596 -7.18 70.461 C-7.2 68.134 -7.221 65.807 -7.242 63.48 C-7.265 59.807 -7.281 56.134 -7.287 52.46 C-7.297 48.919 -7.33 45.378 -7.367 41.836 C-7.365 41.291 -7.365 41.291 -7.352 38.533 C-7.443 31.444 -8.305 25.529 -13.353 20.231 C-19.628 14.751 -24.323 14.365 -32.488 14.5 C-39.405 15.006 -43.978 17.822 -48.906 22.75 C-53.192 28.906 -53.457 34.726 -53.375 42.039 C-53.382 43.101 -53.389 44.163 -53.396 45.257 C-53.418 48.63 -53.415 52.002 -53.406 55.375 C-53.394 59.826 -53.408 64.276 -53.438 68.727 C-53.426 69.742 -53.415 70.758 -53.403 71.805 C-53.445 77.732 -53.851 81.29 -57.906 85.75 C-58.401 85.915 -58.401 85.915 -60.906 86.75 C-60.906 87.41 -60.906 88.07 -60.906 88.75 C-69.603 89.192 -69.603 89.192 -73.906 85.75 C-76.866 82.769 -77.266 80.324 -77.335 76.179 C-77.332 75.445 -77.329 74.711 -77.326 73.956 C-77.33 73.565 -77.33 73.565 -77.352 71.589 C-77.375 69.01 -77.376 66.431 -77.375 63.852 C-77.382 62.056 -77.39 60.26 -77.398 58.464 C-77.412 54.699 -77.413 50.935 -77.407 47.171 C-77.401 42.353 -77.432 37.536 -77.472 32.719 C-77.498 29.009 -77.501 25.3 -77.497 21.59 C-77.499 19.814 -77.509 18.039 -77.527 16.263 C-77.549 13.776 -77.539 11.29 -77.521 8.803 C-77.535 8.074 -77.548 7.344 -77.562 6.592 C-77.469 0.908 -75.794 -1.403 -71.906 -5.25 C-68.842 -6.782 -66.29 -6.479 -62.906 -6.25 C-59.772 -4.754 -57.023 -3.036 -54.906 -0.25 C-54.906 1.07 -54.906 2.39 -54.906 3.75 C-54.107 3.135 -53.308 2.52 -52.484 1.887 C-36.222 -10.239 -17.133 -12.415 0 0 Z " fill="#22C881" transform="translate(524.90625,824.25)"/>
<path d="M0 0 C4.243 1.601 6.62 3.158 9 7 C9.369 9.241 9.369 9.241 9.361 11.733 C9.365 12.681 9.369 13.629 9.373 14.605 C9.362 15.638 9.352 16.671 9.341 17.735 C9.341 18.282 9.341 18.282 9.342 21.047 C9.34 24.662 9.316 28.276 9.293 31.891 C9.287 34.396 9.283 36.901 9.28 39.407 C9.27 45.328 9.246 51.25 9.216 57.171 C9.179 64.575 9.163 71.979 9.146 79.383 C9.114 92.589 9.064 105.794 9 119 C9.726 118.989 10.452 118.978 11.199 118.966 C18.055 118.866 24.911 118.79 31.767 118.741 C35.292 118.715 38.816 118.68 42.34 118.623 C46.396 118.558 50.451 118.534 54.508 118.512 C55.767 118.486 57.027 118.46 58.325 118.434 C68.093 118.43 68.093 118.43 71.781 121.406 C74.901 125.054 75.298 127.136 75.211 131.969 C74.894 135.016 73.986 136.682 72 139 C67.522 141.694 64.184 142.381 58.988 142.404 C58.314 142.411 57.64 142.418 56.946 142.425 C54.735 142.443 52.524 142.439 50.312 142.434 C48.766 142.438 47.22 142.443 45.673 142.449 C42.439 142.458 39.204 142.456 35.97 142.446 C31.834 142.435 27.698 142.455 23.563 142.484 C20.371 142.502 17.18 142.502 13.988 142.496 C12.464 142.496 10.939 142.502 9.415 142.515 C7.28 142.53 5.147 142.519 3.012 142.502 C1.8 142.502 0.587 142.501 -0.661 142.501 C-5.811 141.728 -8.883 139.238 -12.312 135.438 C-14.768 131.891 -15.128 129.215 -15.154 125.01 C-15.158 124.495 -15.158 124.495 -15.18 121.888 C-15.184 120.758 -15.188 119.628 -15.193 118.464 C-15.201 117.273 -15.209 116.083 -15.218 114.856 C-15.243 110.908 -15.259 106.96 -15.273 103.012 C-15.279 101.651 -15.284 100.291 -15.29 98.931 C-15.311 93.271 -15.33 87.612 -15.341 81.953 C-15.357 73.848 -15.391 65.744 -15.448 57.64 C-15.486 51.938 -15.506 46.236 -15.511 40.534 C-15.515 37.129 -15.527 33.726 -15.559 30.322 C-15.591 26.522 -15.591 22.724 -15.583 18.925 C-15.6 17.801 -15.616 16.677 -15.633 15.519 C-15.565 7.012 -15.565 7.012 -12.589 3.317 C-8.548 -0.299 -5.294 -0.552 0 0 Z " fill="#1B77F7" transform="translate(723,772)"/>
<path d="M0 0 C1.092 -0.011 2.184 -0.021 3.308 -0.032 C6.911 -0.058 10.513 -0.041 14.115 -0.021 C16.624 -0.025 19.132 -0.03 21.64 -0.038 C26.895 -0.047 32.149 -0.034 37.404 -0.006 C43.466 0.027 49.528 0.016 55.59 -0.017 C61.437 -0.047 67.283 -0.044 73.13 -0.027 C75.611 -0.023 78.092 -0.027 80.573 -0.041 C84.044 -0.057 87.513 -0.033 90.984 0 C92.006 -0.012 93.028 -0.024 94.081 -0.037 C100.026 0.069 103.431 0.995 107.848 5.052 C109.771 7.795 109.823 10.325 109.553 13.593 C108.781 16.991 107.338 19.178 105.057 21.776 C102.096 23.606 99.858 24.031 96.402 24.051 C95.471 24.06 94.541 24.07 93.582 24.081 C92.568 24.081 91.553 24.082 90.509 24.083 C89.435 24.091 88.361 24.099 87.255 24.108 C83.702 24.132 80.149 24.141 76.596 24.147 C74.127 24.156 71.659 24.166 69.19 24.175 C64.014 24.191 58.837 24.199 53.66 24.202 C47.027 24.207 40.394 24.245 33.76 24.291 C28.661 24.32 23.562 24.328 18.463 24.329 C16.017 24.333 13.571 24.345 11.126 24.366 C7.705 24.393 4.285 24.388 0.864 24.376 C-0.146 24.391 -1.156 24.405 -2.197 24.421 C-6.736 24.373 -9.937 24.282 -13.556 21.364 C-16.589 18.076 -17.162 16.4 -17.381 12.026 C-17.441 11.186 -17.502 10.345 -17.564 9.479 C-15.442 0.245 -7.928 -0.094 0 0 Z " fill="#1C78F4" transform="translate(611.943115234375,531.2236328125)"/>
<path d="M0 0 C1.103 -0.012 2.206 -0.024 3.343 -0.037 C6.983 -0.068 10.621 -0.056 14.262 -0.04 C16.795 -0.046 19.328 -0.055 21.861 -0.064 C27.167 -0.078 32.472 -0.069 37.778 -0.045 C43.903 -0.017 50.027 -0.036 56.152 -0.08 C62.056 -0.12 67.96 -0.121 73.865 -0.106 C76.372 -0.103 78.879 -0.112 81.386 -0.131 C84.891 -0.154 88.393 -0.132 91.898 -0.098 C92.933 -0.113 93.968 -0.129 95.035 -0.145 C101.859 -0.015 101.859 -0.015 104.941 2.267 C107.703 5.307 109.316 7.689 109.574 11.855 C108.878 16.24 107.825 18.438 104.949 21.792 C101.992 23.626 99.749 24.046 96.295 24.066 C95.364 24.076 94.433 24.086 93.474 24.097 C92.46 24.097 91.446 24.098 90.401 24.099 C89.327 24.107 88.254 24.115 87.148 24.124 C83.594 24.148 80.041 24.157 76.488 24.163 C74.02 24.172 71.551 24.181 69.083 24.191 C63.906 24.207 58.729 24.215 53.553 24.218 C46.919 24.223 40.286 24.261 33.653 24.307 C28.553 24.336 23.454 24.343 18.355 24.344 C15.909 24.349 13.464 24.361 11.018 24.382 C7.597 24.409 4.177 24.404 0.756 24.392 C-0.254 24.406 -1.264 24.421 -2.304 24.437 C-6.844 24.389 -10.045 24.298 -13.664 21.38 C-16.697 18.092 -17.27 16.415 -17.488 12.042 C-17.549 11.202 -17.609 10.361 -17.672 9.495 C-15.54 0.217 -7.958 -0.081 0 0 Z " fill="#26C596" transform="translate(612.05078125,447.207763671875)"/>
<path d="M0 0 C7.779 4.672 12.045 11.219 14.375 19.938 C15.64 28.122 13.395 35.675 9.312 42.789 C5.439 48.035 -1.245 51.753 -7.625 52.938 C-16.992 53.622 -24.382 52.635 -31.801 46.645 C-37.21 41.582 -40.159 36.079 -40.996 28.641 C-41.177 19.232 -39.988 12.625 -33.465 5.617 C-24.352 -2.872 -11.621 -5.377 0 0 Z " fill="#FAFCFD" transform="translate(880.625,840.0625)"/>
<path d="M0 0 C6.42 4.323 11.067 9.711 12.961 17.32 C14.055 27.05 13.167 34.689 7.277 42.574 C4.467 45.953 2.118 48.679 -2.039 50.32 C-3.029 50.32 -4.019 50.32 -5.039 50.32 C-5.039 50.98 -5.039 51.64 -5.039 52.32 C-23.019 53.313 -23.019 53.313 -30.039 47.32 C-35.481 42.21 -39.671 36.955 -40.281 29.273 C-40.351 25.931 -40.255 22.656 -40.039 19.32 C-39.993 18.573 -39.946 17.825 -39.898 17.055 C-38.761 9.69 -32.708 4.295 -27.16 -0.203 C-19.37 -4.948 -7.864 -4.181 0 0 Z " fill="#FAFBFD" transform="translate(1004.0390625,839.6796875)"/>
<path d="M0 0 C4.157 1.795 6.518 4.243 9 8 C9.387 10.684 9.548 12.955 9.518 15.633 C9.525 16.384 9.532 17.136 9.539 17.911 C9.556 20.388 9.545 22.863 9.531 25.34 C9.534 27.067 9.538 28.794 9.543 30.522 C9.549 34.139 9.54 37.756 9.521 41.373 C9.499 46.001 9.512 50.628 9.536 55.256 C9.55 58.823 9.546 62.389 9.535 65.955 C9.533 67.661 9.536 69.367 9.545 71.073 C9.555 73.462 9.54 75.849 9.518 78.238 C9.526 78.938 9.534 79.638 9.542 80.359 C9.457 85.339 8.087 88.146 5 92 C1.499 94.917 -1.616 95.59 -6.07 95.422 C-10.03 94.556 -11.997 91.525 -14.115 88.305 C-15.375 85.024 -15.295 81.838 -15.291 78.373 C-15.297 77.61 -15.304 76.847 -15.311 76.061 C-15.33 73.542 -15.334 71.023 -15.336 68.504 C-15.342 66.75 -15.349 64.997 -15.356 63.243 C-15.368 59.569 -15.372 55.895 -15.371 52.22 C-15.37 47.515 -15.398 42.81 -15.432 38.104 C-15.454 34.483 -15.458 30.862 -15.457 27.241 C-15.46 25.506 -15.469 23.772 -15.484 22.037 C-15.504 19.61 -15.498 17.183 -15.486 14.756 C-15.497 14.042 -15.508 13.327 -15.52 12.591 C-15.459 7.779 -14.403 5.376 -11 2 C-7.287 -0.476 -4.304 -0.54 0 0 Z " fill="#21C87F" transform="translate(397,818)"/>
<path d="M0 0 C5.508 2.774 9.167 6.553 12 12 C12.369 14.583 12.369 14.583 12.361 17.385 C12.365 18.452 12.369 19.519 12.373 20.618 C12.362 21.778 12.352 22.939 12.341 24.134 C12.341 24.749 12.341 24.749 12.342 27.86 C12.34 31.224 12.325 34.587 12.304 37.95 C12.285 41.468 12.284 44.986 12.28 48.504 C12.271 55.162 12.246 61.82 12.216 68.478 C12.183 76.06 12.166 83.641 12.151 91.223 C12.12 106.815 12.067 122.408 12 138 C9.826 134.738 9.746 133.809 9.728 130.035 C9.723 129.522 9.723 129.522 9.699 126.929 C9.698 125.805 9.698 124.681 9.697 123.524 C9.689 122.34 9.68 121.156 9.671 119.936 C9.65 116.688 9.637 113.44 9.628 110.192 C9.616 106.793 9.592 103.395 9.57 99.996 C9.528 93.555 9.496 87.114 9.467 80.673 C9.416 69.141 9.354 57.609 9.282 46.076 C9.261 42.693 9.243 39.309 9.23 35.925 C9.215 32.152 9.195 28.379 9.174 24.606 C9.171 23.484 9.168 22.362 9.166 21.207 C9.159 20.179 9.152 19.151 9.145 18.092 C9.141 17.2 9.137 16.308 9.133 15.389 C9.007 13.126 8.634 11.17 8 9 C7.34 9 6.68 9 6 9 C3.875 7.125 3.875 7.125 2 5 C2 4.34 2 3.68 2 3 C-10.612 2.378 -10.612 2.378 -15.625 4.625 C-21.886 10.886 -23.011 16.295 -23.114 24.933 C-23.113 26.852 -23.108 28.771 -23.098 30.689 C-23.096 31.742 -23.095 32.795 -23.093 33.88 C-23.089 36.158 -23.083 38.435 -23.075 40.713 C-23.062 44.319 -23.056 47.926 -23.051 51.532 C-23.04 59.188 -23.02 66.844 -23 74.5 C-22.976 83.374 -22.956 92.247 -22.944 101.121 C-22.938 104.67 -22.925 108.219 -22.912 111.768 C-22.909 113.949 -22.905 116.13 -22.902 118.311 C-22.9 118.802 -22.9 118.802 -22.887 121.29 C-22.886 126.306 -23.138 131.056 -24 136 C-24.33 136 -24.66 136 -25 136 C-25.093 119.936 -25.164 103.872 -25.207 87.808 C-25.228 80.349 -25.256 72.89 -25.302 65.431 C-25.342 58.929 -25.367 52.427 -25.376 45.925 C-25.382 42.482 -25.394 39.041 -25.423 35.599 C-25.455 31.754 -25.456 27.909 -25.454 24.064 C-25.461 23.495 -25.461 23.495 -25.498 20.616 C-25.459 13.266 -24.6 9.626 -19.367 4.355 C-13.05 -0.589 -7.992 -1.126 0 0 Z " fill="#1EB3BA" transform="translate(528,507)"/>
<path d="M0 0 C4.416 0.905 7.208 2.767 9.969 6.281 C11.392 11.405 11.323 15.732 8.844 20.406 C6.629 23.482 5.966 24.255 2.594 25.531 C-2.77 26.291 -7.018 26.551 -11.469 23.281 C-12.108 22.374 -12.748 21.466 -13.406 20.531 C-13.839 19.933 -14.272 19.335 -14.719 18.719 C-16.172 14.096 -16.437 10.539 -14.227 6.234 C-10.192 0.79 -6.707 -0.516 0 0 Z " fill="#23C880" transform="translate(396.40625,772.46875)"/>
<path d="M0 0 C0.99 0.33 1.98 0.66 3 1 C-6.089 7.195 -15.166 11.123 -26.268 11.127 C-26.9 11.128 -26.9 11.128 -30.1 11.136 C-31.495 11.134 -32.89 11.132 -34.285 11.129 C-35.761 11.131 -37.237 11.133 -38.713 11.135 C-42.727 11.139 -46.742 11.137 -50.757 11.134 C-54.996 11.132 -59.236 11.134 -63.475 11.136 C-70.63 11.138 -77.785 11.135 -84.94 11.13 C-93.107 11.125 -101.274 11.127 -109.442 11.132 C-116.514 11.137 -123.586 11.137 -130.659 11.135 C-134.854 11.133 -139.049 11.133 -143.245 11.136 C-166.845 11.153 -190.411 10.732 -214 10 C-214 9.67 -214 9.34 -214 9 C-202.259 8.215 -190.634 7.901 -178.871 8.121 C-177.301 8.146 -175.731 8.169 -174.16 8.193 C-170.078 8.255 -165.997 8.324 -161.915 8.395 C-156.178 8.494 -150.441 8.582 -144.704 8.672 C-141.667 8.719 -138.631 8.769 -135.594 8.822 C-131.396 8.893 -127.198 8.951 -123 9 C-122.302 9.009 -121.605 9.018 -120.886 9.027 C-113.067 9.115 -105.31 9.02 -97.506 8.5 C-89.707 7.98 -81.958 7.906 -74.144 7.986 C-71.829 8.009 -69.515 8.022 -67.201 8.034 C-60.636 8.067 -54.071 8.109 -47.507 8.171 C-43.454 8.209 -39.402 8.232 -35.349 8.246 C-33.821 8.254 -32.294 8.267 -30.766 8.287 C-20.839 8.411 -12.02 8.272 -3.625 2.25 C-1.727 0.891 -1.727 0.891 0 0 Z " fill="#217FEC" transform="translate(790,680)"/>
<path d="M0 0 C5.17 2.51 9.805 5.58 14.371 9.055 C14.041 9.715 13.711 10.375 13.371 11.055 C6.496 7.305 6.496 7.305 5.371 5.055 C-0.855 2.85 -7.575 0.96 -13.941 3.242 C-14.828 3.84 -15.715 4.438 -16.629 5.055 C-17.371 5.55 -18.114 6.045 -18.879 6.555 C-21.691 10.572 -22.266 15.217 -22.629 20.055 C-22.172 22.273 -22.172 22.273 -21.629 24.055 C-21.629 24.715 -21.629 25.375 -21.629 26.055 C-20.969 26.055 -20.309 26.055 -19.629 26.055 C-19.113 26.591 -18.598 27.127 -18.066 27.68 C-15.846 29.843 -13.784 31.325 -11.191 32.992 C-7.514 35.377 -4.577 37.822 -1.629 41.055 C-5.148 41.055 -5.766 40.437 -8.441 38.305 C-10.845 36.42 -13.15 34.732 -15.754 33.117 C-20.164 29.953 -23.894 26.26 -25.629 21.055 C-26.167 14.701 -25.269 10.355 -21.629 5.055 C-15.318 -0.941 -8.388 -3.016 0 0 Z " fill="#35C2A0" transform="translate(769.62890625,300.9453125)"/>
<path d="M0 0 C0.99 0.33 1.98 0.66 3 1 C0.393 2.777 -2.278 4.405 -5 6 C-5.629 6.373 -6.257 6.746 -6.905 7.13 C-15.951 11.558 -26.073 10.497 -35.883 10.391 C-37.909 10.383 -39.935 10.377 -41.961 10.373 C-47.264 10.358 -52.567 10.319 -57.871 10.275 C-63.294 10.234 -68.717 10.215 -74.141 10.195 C-84.761 10.153 -95.38 10.084 -106 10 C-106 9.67 -106 9.34 -106 9 C-95.363 8.253 -84.806 7.877 -74.144 7.986 C-71.829 8.009 -69.515 8.022 -67.201 8.034 C-60.636 8.067 -54.071 8.109 -47.507 8.171 C-43.454 8.209 -39.402 8.232 -35.349 8.246 C-33.821 8.254 -32.294 8.267 -30.766 8.287 C-20.839 8.411 -12.02 8.272 -3.625 2.25 C-1.727 0.891 -1.727 0.891 0 0 Z " fill="#1570F2" transform="translate(790,680)"/>
<path d="M0 0 C5.17 2.51 9.805 5.58 14.371 9.055 C14.041 9.715 13.711 10.375 13.371 11.055 C6.496 7.305 6.496 7.305 5.371 5.055 C-0.089 3.121 -7.056 1.046 -12.773 2.66 C-13.386 2.79 -13.998 2.921 -14.629 3.055 C-15.289 2.395 -15.949 1.735 -16.629 1.055 C-11.314 -1.967 -5.735 -2.062 0 0 Z " fill="#38C9A1" transform="translate(769.62890625,300.9453125)"/>
<path d="M0 0 C2.098 0.434 2.098 0.434 4 1 C3.526 1.392 3.526 1.392 1.125 3.375 C-2.408 6.834 -2.976 10.13 -3.578 14.926 C-3.717 15.61 -3.857 16.295 -4 17 C-4.66 17.33 -5.32 17.66 -6 18 C-6.411 11.152 -5.765 6.726 -1.562 1.062 C-1.047 0.712 -0.531 0.361 0 0 Z " fill="#35C49D" transform="translate(751,303)"/>
<path d="M0 0 C0.99 0.33 1.98 0.66 3 1 C-10.205 10 -10.205 10 -17 10 C-16.67 9.01 -16.34 8.02 -16 7 C-13.926 6.191 -13.926 6.191 -11.312 5.562 C-7.969 4.669 -5.357 3.803 -2.562 1.75 C-1.717 1.173 -0.871 0.595 0 0 Z " fill="#207EF7" transform="translate(790,680)"/>
<path d="M0 0 C12.902 -0.689 12.902 -0.689 16.812 2 C17.534 2.66 18.256 3.32 19 4 C18.67 4.99 18.34 5.98 18 7 C16 5.625 16 5.625 14 4 C14 3.34 14 2.68 14 2 C9.71 2 5.42 2 1 2 C0.67 1.34 0.34 0.68 0 0 Z " fill="#26BBA9" transform="translate(516,508)"/>
<path d="M0 0 C0.66 0.33 1.32 0.66 2 1 C2 1.66 2 2.32 2 3 C-1.462 6 -1.462 6 -4 6 C-4 8.64 -4 11.28 -4 14 C-4.33 14 -4.66 14 -5 14 C-5.788 5.965 -5.788 5.965 -2.5 1.938 C-2.087 1.618 -2.087 1.618 0 0 Z " fill="#3686FA" transform="translate(952,922)"/>
<path d="M0 0 C0 3 0 3 -1.75 4.824 C-2.492 5.439 -3.235 6.054 -4 6.688 C-4.742 7.31 -5.485 7.933 -6.25 8.574 C-6.827 9.045 -7.405 9.515 -8 10 C-8.66 9.67 -9.32 9.34 -10 9 C-6.7 6.03 -3.4 3.06 0 0 Z " fill="#2C81F7" transform="translate(838,825)"/>
<path d="M0 0 C0.66 0 1.32 0 2 0 C1.886 1.48 1.759 2.959 1.625 4.438 C1.59 4.849 1.59 4.849 1.414 6.934 C1.277 7.616 1.141 8.297 1 9 C0.67 9.165 0.67 9.165 -1 10 C-1.027 8.521 -1.046 7.042 -1.062 5.562 C-1.074 4.739 -1.086 3.915 -1.098 3.066 C-1 1 -1 1 0 0 Z " fill="#23C89A" transform="translate(746,311)"/>
<path d="M0 0 C0.66 0 1.32 0 2 0 C2.697 1.454 3.382 2.913 4.062 4.375 C4.254 4.781 4.254 4.781 5.223 6.836 C5.479 7.55 5.736 8.264 6 9 C5.67 9.66 5.34 10.32 5 11 C4.155 9.926 3.324 8.84 2.5 7.75 C2.036 7.147 1.572 6.543 1.094 5.922 C0 4 0 4 0 0 Z " fill="#37CD88" transform="translate(503,478)"/>
<path d="M0 0 C0.33 0 0.66 0 1 0 C1 3.3 1 6.6 1 10 C0.67 10 0.34 10 0 10 C0 6.7 0 3.4 0 0 Z M-2 10 C-1.34 10 -0.68 10 0 10 C-0.66 11.32 -1.32 12.64 -2 14 C-2.99 14 -3.98 14 -5 14 C-3.625 12 -3.625 12 -2 10 Z " fill="#E8F9F2" transform="translate(543,894)"/>
<path d="M0 0 C0 0.33 0 0.66 0 1 C-1.98 1 -3.96 1 -6 1 C-6 1.66 -6 2.32 -6 3 C-7.65 3.66 -9.3 4.32 -11 5 C-10.625 3.062 -10.625 3.062 -10 1 C-6.785 -0.607 -3.564 -0.057 0 0 Z " fill="#2680FA" transform="translate(723,772)"/>
<path d="M0 0 C0.66 0.33 1.32 0.66 2 1 C0.02 4.3 -1.96 7.6 -4 11 C-4.33 10.01 -4.66 9.02 -5 8 C-3.688 5.5 -3.688 5.5 -2 3 C-1.34 2.01 -0.68 1.02 0 0 Z " fill="#2A86F7" transform="translate(806,662)"/>
<path d="M0 0 C0.892 0.018 1.784 0.036 2.703 0.055 C3.041 0.066 3.041 0.066 4.75 0.125 C4.75 0.455 4.75 0.785 4.75 1.125 C2.11 1.125 -0.53 1.125 -3.25 1.125 C-3.25 1.785 -3.25 2.445 -3.25 3.125 C-5.125 3.75 -5.125 3.75 -7.25 4.125 C-7.91 3.465 -8.57 2.805 -9.25 2.125 C-6.038 0.219 -3.711 -0.098 0 0 Z " fill="#63D3B4" transform="translate(762.25,299.875)"/>
<path d="M0 0 C0.66 0.33 1.32 0.66 2 1 C1.381 1.577 0.763 2.155 0.125 2.75 C-1.813 4.802 -2.9 6.434 -4 9 C-4.66 9 -5.32 9 -6 9 C-5.528 4.752 -3.033 2.8 0 0 Z " fill="#38CF9B" transform="translate(601,448)"/>
<path d="M0 0 C2.97 0 5.94 0 9 0 C8.67 0.495 8.67 0.495 7 3 C4.5 3.375 4.5 3.375 2 3 C1.34 2.01 0.68 1.02 0 0 Z " fill="#CDF2E2" transform="translate(390,798)"/>
<path d="M0 0 C0 2.97 0 5.94 0 9 C-0.33 8.34 -0.66 7.68 -1 7 C-1.66 7 -2.32 7 -3 7 C-3 5.02 -3 3.04 -3 1 C-1 0 -1 0 0 0 Z " fill="#2F85F8" transform="translate(721,538)"/>
<path d="M0 0 C0.33 0 0.66 0 1 0 C1 2.31 1 4.62 1 7 C1.99 7.33 2.98 7.66 4 8 C3.34 9.32 2.68 10.64 2 12 C-0.6 8.1 -0.151 4.526 0 0 Z " fill="#5DD4B4" transform="translate(744,314)"/>
<path d="M0 0 C2 1 2 1 3 3 C1.035 4.068 -0.969 5.066 -3 6 C-3.66 5.67 -4.32 5.34 -5 5 C-3.35 3.35 -1.7 1.7 0 0 Z " fill="#2B87F8" transform="translate(601,532)"/>
<path d="M0 0 C0.66 0.33 1.32 0.66 2 1 C-2.395 5.004 -2.395 5.004 -4 6 C-4.99 5.67 -5.98 5.34 -7 5 C-6.34 5 -5.68 5 -5 5 C-5 4.34 -5 3.68 -5 3 C-2.625 1.312 -2.625 1.312 0 0 Z " fill="#27C885" transform="translate(534,486)"/>
<path d="M0 0 C4.248 0.472 6.2 2.967 9 6 C4.588 6 3.216 3.93 0 1 C0 0.67 0 0.34 0 0 Z " fill="#47C6AB" transform="translate(759,336)"/>
</svg>
